<svg width="25" height="25" viewBox="0 0 25 25" fill="none" xmlns="http://www.w3.org/2000/svg">
<path fill-rule="evenodd" clip-rule="evenodd" d="M19.1666 5.83333H5.83329C4.91663 5.83333 4.17496 6.58333 4.17496 7.49999L4.16663 17.5C4.16663 18.4167 4.91663 19.1667 5.83329 19.1667H19.1666C20.0833 19.1667 20.8333 18.4167 20.8333 17.5V7.49999C20.8333 6.58333 20.0833 5.83333 19.1666 5.83333ZM18.8333 9.37499L12.9416 13.0583C12.675 13.225 12.325 13.225 12.0583 13.0583L6.16663 9.37499C5.95829 9.24166 5.83329 9.01666 5.83329 8.775C5.83329 8.21666 6.44163 7.88333 6.91663 8.175L12.5 11.6667L18.0833 8.175C18.5583 7.88333 19.1666 8.21666 19.1666 8.775C19.1666 9.01666 19.0416 9.24166 18.8333 9.37499Z" fill="white"/>
</svg>
