<svg width="25" height="25" viewBox="0 0 25 25" fill="none" xmlns="http://www.w3.org/2000/svg">
<path fill-rule="evenodd" clip-rule="evenodd" d="M12.5 4.16667C7.89996 4.16667 4.16663 7.90001 4.16663 12.5C4.16663 17.1 7.89996 20.8333 12.5 20.8333C17.1 20.8333 20.8333 17.1 20.8333 12.5C20.8333 7.90001 17.1 4.16667 12.5 4.16667ZM11.6666 19.1083C8.37496 18.7 5.83329 15.9 5.83329 12.5C5.83329 11.9833 5.89996 11.4917 6.00829 11.0083L9.99996 15V15.8333C9.99996 16.75 10.75 17.5 11.6666 17.5V19.1083ZM17.4166 16.9917C17.2 16.3167 16.5833 15.8333 15.8333 15.8333H15V13.3333C15 12.875 14.625 12.5 14.1666 12.5H9.16663V10.8333H10.8333C11.2916 10.8333 11.6666 10.4583 11.6666 10V8.33334H13.3333C14.25 8.33334 15 7.58334 15 6.66667V6.32501C17.4416 7.31667 19.1666 9.70834 19.1666 12.5C19.1666 14.2333 18.5 15.8083 17.4166 16.9917Z" fill="white"/>
</svg>
